<?xml version="1.0" encoding="utf-8"?>
<!-- Generator: Adobe Illustrator 25.2.3, SVG Export Plug-In . SVG Version: 6.00 Build 0)  -->
<svg version="1.1" id="Layer_1" xmlns="http://www.w3.org/2000/svg" xmlns:xlink="http://www.w3.org/1999/xlink" x="0px" y="0px"
	 viewBox="0 0 819.53 174.71" style="enable-background:new 0 0 819.53 174.71;" xml:space="preserve">
<style type="text/css">
	.st0{fill:#EE322F;}
	.st1{font-family:'UrbaneRounded-Medium';}
	.st2{font-size:114.8144px;}
</style>
<g>
	<text transform="matrix(0.9989 0 0 1 155.4948 139.8288)" class="st0 st1 st2">Neighborly</text>
	<path class="st0" d="M125.48,76.14l-48.1-42.6L29.25,76.16v60.89c0,1.57,1.27,2.83,2.84,2.83h30.08v-26.7
		c0-1.57,1.26-2.84,2.83-2.84h24.71c1.57,0,2.83,1.27,2.83,2.84v26.7h30.09c1.57,0,2.83-1.26,2.83-2.83L125.48,76.14L125.48,76.14z"
		/>
	<path class="st0" d="M77.1,10.23L8.84,70.67l7.19,8.11l61.35-54.32l61.33,54.32l7.18-8.11L77.65,10.23l-0.27,0.31L77.1,10.23
		L77.1,10.23z"/>
	<path class="st0" d="M29.25,18.93h17.3l-0.15,10.25l-17.15,15.5L29.25,18.93L29.25,18.93z"/>
</g>
</svg>
